<svg width="38" height="26" viewBox="0 0 38 26" fill="none" xmlns="http://www.w3.org/2000/svg">
<path d="M14.8339 5.0949C14.8339 5.54349 14.7013 5.97169 14.4669 6.33871L17.1686 9.86626V6.62418C17.1686 5.38036 16.2102 4.37104 15.0174 4.36084H14.7013C14.7931 4.59533 14.8339 4.84002 14.8339 5.0949Z" fill="#E7262B"/>
<path d="M2.80356 9.44819C2.57927 8.53062 3.11961 7.59266 3.9964 7.35817C4.87319 7.12368 5.76018 7.68442 5.97428 8.61219C6.10682 9.17292 5.96408 9.76425 5.59705 10.1924L7.51376 13.9035C8.00313 13.7302 8.53328 13.6996 9.04304 13.8016L11.5817 6.8688C10.8272 6.30806 10.5315 5.27835 10.8476 4.37097H2.15107C0.968422 4.37097 0.0100708 5.3803 0.0100708 6.63431V11.3751L2.80356 9.44819Z" fill="#E7262B"/>
<path d="M13.6514 7.0625C13.3761 7.20523 13.0703 7.2766 12.7644 7.2766C12.6931 7.2766 12.6217 7.2766 12.5503 7.2664L10.0117 14.2094C11.439 15.1167 11.8876 17.0742 11.021 18.5729C10.1544 20.0716 8.29891 20.5508 6.88178 19.6332C5.45445 18.7156 5.00586 16.7684 5.87245 15.2697C6.05596 14.9536 6.29045 14.6681 6.57592 14.4336L4.64902 10.7226C4.19024 10.8041 3.73145 10.6818 3.36442 10.3861L0 12.7107V20.1838C0 21.4276 0.958351 22.4369 2.141 22.4471H9.66507C9.51215 24.272 7.13666 25.8319 7.16724 25.8319C10.3176 25.8421 12.6217 24.4352 13.6922 22.4471H15.0074C16.19 22.4471 17.1484 21.4378 17.1586 20.1838V11.6402L13.6514 7.0625Z" fill="#E7262B"/>
<path d="M19.8705 15.1677V20.1838C19.8705 21.4276 20.8289 22.4471 22.0115 22.4471H22.4092C22.0217 21.3358 22.2358 20.1022 22.9699 19.2152L19.8705 15.1677Z" fill="#F9AD42"/>
<path d="M34.8881 4.3607H27.364C27.5272 2.53575 29.9026 0.975885 29.8619 0.975885C26.7115 0.96569 24.4074 2.37263 23.3369 4.3607H22.0217C20.8391 4.3607 19.8807 5.37003 19.8705 6.62404V13.3937L23.7855 18.5015C24.2443 18.2262 24.7643 18.0835 25.3046 18.0835C25.3658 18.0835 25.4371 18.0835 25.4983 18.0937L26.8849 11.9561C26.1202 11.4464 25.8959 10.3759 26.3853 9.58066C26.8747 8.77523 27.884 8.54074 28.6486 9.0505C29.3317 9.50929 29.5968 10.4269 29.2604 11.2017L32.1864 14.1073C32.7165 13.7505 33.369 13.6689 33.9604 13.8627L35.7751 10.7837C35.2755 10.1006 35.4081 9.11168 36.0606 8.59172C36.3155 8.38781 36.6315 8.27567 36.9578 8.27567H37.0393V6.61384C37.0393 5.37003 36.0708 4.3607 34.8881 4.3607Z" fill="#F9AD42"/>
<path d="M36.6721 11.3749L34.8574 14.4538C35.673 15.351 35.6424 16.7682 34.7962 17.6246C33.95 18.4809 32.594 18.4504 31.7784 17.5634C31.1259 16.8497 31.0036 15.7792 31.4522 14.9126L28.5363 12.007C28.3426 12.1191 28.1285 12.1803 27.9144 12.2007L26.5279 18.328C28.0266 19.0111 28.7606 20.8157 28.1897 22.4367H34.8778C36.0604 22.4367 37.0188 21.4274 37.029 20.1734V11.3953H36.9474C36.8556 11.4055 36.7639 11.3953 36.6721 11.3749Z" fill="#F9AD42"/>
</svg>
